<?xml version="1.0" standalone="no"?>
<!DOCTYPE svg PUBLIC "-//W3C//DTD SVG 20010904//EN"
 "http://www.w3.org/TR/2001/REC-SVG-20010904/DTD/svg10.dtd">
<svg version="1.0" xmlns="http://www.w3.org/2000/svg"
 width="201.000000pt" height="250.000000pt" viewBox="0 0 201.000000 250.000000"
 preserveAspectRatio="xMidYMid meet">

<g transform="translate(0.000000,250.000000) scale(0.100000,-0.100000)"
fill="#000000" stroke="none">
<path d="M948 1851 c-31 -47 -104 -155 -162 -240 -176 -256 -255 -436 -278
-632 -10 -83 -9 -113 7 -210 10 -63 25 -129 33 -149 25 -60 97 -164 153 -221
61 -62 148 -134 153 -128 4 4 -41 81 -134 229 l-48 75 2 276 1 276 44 59 c25
32 86 102 137 154 107 109 133 162 160 326 16 91 13 258 -4 268 -4 2 -32 -35
-64 -83z"/>
<path d="M1515 1806 c0 -93 -5 -135 -19 -180 -27 -82 -98 -186 -195 -286 -111
-114 -198 -214 -232 -268 -117 -184 -98 -472 47 -713 48 -79 196 -248 255
-290 l29 -21 -21 54 c-60 147 -96 302 -83 355 21 86 63 113 181 113 160 1 203
24 203 108 0 36 6 52 27 74 25 26 26 29 9 46 -16 18 -15 20 6 35 23 14 23 15
6 45 -30 50 -24 71 27 93 28 12 45 26 45 37 0 9 -21 53 -46 97 -25 44 -57 107
-71 140 -27 65 -28 111 -3 271 12 82 3 163 -28 234 -21 50 -105 165 -125 173
-9 3 -12 -24 -12 -117z"/>
<path d="M357 385 c58 -85 109 -155 115 -155 7 0 7 5 -1 13 -6 8 -7 18 -3 22
4 5 1 4 -7 0 -11 -6 -13 -4 -8 8 3 10 3 17 -2 17 -11 0 -81 117 -81 135 0 31
-36 81 -70 98 -20 9 -39 17 -42 17 -4 0 41 -70 99 -155z"/>
<path d="M480 216 c0 -2 8 -10 18 -17 15 -13 16 -12 3 4 -13 16 -21 21 -21 13z"/>
</g>
</svg>
