<svg width="75" height="71" viewBox="0 0 75 71" fill="none" xmlns="http://www.w3.org/2000/svg">
<path d="M0.4878 67.6672L10.438 58.373C9.46722 56.8581 9.22947 54.9814 9.87855 53.274L11.0912 50.0897C10.2866 47.817 10.8337 45.2088 12.7472 43.402L39.126 18.5055L38.8406 18.2361C37.5597 17.0271 37.5597 15.0611 38.8406 13.8522L41.4344 11.404C42.7153 10.195 44.7983 10.195 46.0792 11.404L49.7269 14.8468L53.141 11.6245L49.4933 8.18168C48.2124 6.97273 48.2124 5.00672 49.4933 3.79777L52.0871 1.34959C53.368 0.140633 55.451 0.140633 56.7319 1.34959L73.08 16.7787C74.3609 17.9876 74.3609 19.9536 73.08 21.1626L70.4861 23.6108C69.8658 24.197 69.0415 24.5192 68.1637 24.5192C67.2859 24.5192 66.4616 24.197 65.8413 23.6115L62.1936 20.1687L58.7796 23.391L62.4273 26.8339C63.7082 28.0428 63.7082 30.0088 62.4273 31.2178L59.8334 33.6659C59.1934 34.27 58.3526 34.5729 57.511 34.5729C56.6694 34.5729 55.8295 34.2708 55.1886 33.6659L54.9031 33.3965L46.9274 40.9243L46.9266 40.9251L46.9257 40.9259L40.8076 46.6996L40.8067 46.7004L40.8059 46.7012L28.5243 58.293C27.1768 59.5649 25.408 60.2 23.6377 60.2C22.8931 60.2 22.1511 60.0804 21.4387 59.856L18.0633 61.0013C17.373 61.235 16.6557 61.3476 15.9441 61.3476C14.8392 61.3476 13.7492 61.0689 12.7875 60.5494L2.80278 69.8755C2.48194 70.1752 2.06403 70.3243 1.64529 70.3243C1.22079 70.3243 0.797946 70.1706 0.47546 69.8639C-0.16293 69.2543 -0.157994 68.2706 0.4878 67.6672ZM68.1588 21.4142L70.7527 18.9737L54.4104 3.55008L51.8206 5.98584L56.6176 10.5157C56.6217 10.5196 56.6275 10.5227 56.6316 10.5266L63.356 16.8734C63.3667 16.8835 63.3733 16.8951 63.384 16.906L68.1588 21.4142ZM55.4683 13.8203L52.0542 17.0427L56.4522 21.1936L59.8663 17.9713L55.4683 13.8203ZM60.0999 29.0289L43.7568 13.6045L41.1671 16.0403L42.6117 17.4045C42.6133 17.4061 42.6158 17.4076 42.6158 17.4076L42.6191 17.4115L56.022 30.0678C56.036 30.0802 56.0524 30.0888 56.0664 30.102C56.0804 30.1152 56.0894 30.1307 56.1026 30.1439L57.5061 31.4693L60.0999 29.0289ZM26.1978 56.0964L31.1972 51.3778L25.6359 46.1282C24.9934 45.5218 24.9934 44.5388 25.6359 43.9323C26.2784 43.3259 27.3199 43.3259 27.9624 43.9323L33.5237 49.182L37.317 45.6017L28.8953 37.6539C28.2528 37.0474 28.2528 36.0644 28.8953 35.458C29.5378 34.8516 30.5793 34.8516 31.2218 35.458L39.6435 43.4059L43.4368 39.8264L37.8756 34.5767C37.2331 33.9703 37.2331 32.9873 37.8756 32.3809C38.5181 31.7745 39.5604 31.7745 40.2021 32.3809L45.7633 37.6306L52.5758 31.2007L41.4525 20.7021L15.0745 45.5994C14.3909 46.2446 14.0149 47.1026 14.0149 48.015C14.0149 48.9281 14.3909 49.7853 15.0745 50.4305L21.0783 56.0972C21.762 56.7424 22.671 57.0973 23.6377 57.0973C24.6051 57.0965 25.5133 56.7416 26.1978 56.0964ZM16.951 58.0779L18.1085 57.685L13.3913 53.2328L12.9759 54.3237C12.5827 55.3572 12.8599 56.5258 13.6817 57.3022L13.7961 57.4102C14.6188 58.1882 15.8602 58.4483 16.951 58.0779Z" fill="white"/>
</svg>
