<svg xmlns="http://www.w3.org/2000/svg" xmlns:xlink="http://www.w3.org/1999/xlink" version="1.1" width="256" height="256" viewBox="0 0 256 256" xml:space="preserve">

<defs>
</defs>
<g style="stroke: none; stroke-width: 0; stroke-dasharray: none; stroke-linecap: butt; stroke-linejoin: miter; stroke-miterlimit: 10; fill: none; fill-rule: nonzero; opacity: 1;" transform="translate(1.4065934065934016 1.4065934065934016) scale(2.81 2.81)" >
	<path d="M 89.407 86.578 l -12.095 -11.97 c 1.18 -1.951 1.469 -4.368 0.68 -6.567 l -1.474 -4.101 c 0.978 -2.927 0.313 -6.286 -2.013 -8.613 L 42.44 23.263 l 0.347 -0.347 c 1.557 -1.557 1.557 -4.089 0 -5.646 l -3.153 -3.153 c -1.557 -1.557 -4.089 -1.557 -5.646 0 l -4.434 4.434 l -4.15 -4.15 l 4.434 -4.434 c 1.557 -1.557 1.557 -4.089 0 -5.646 l -3.153 -3.153 c -1.557 -1.557 -4.089 -1.557 -5.646 0 L 1.167 21.039 c -1.557 1.557 -1.557 4.089 0 5.646 l 3.153 3.153 c 0.754 0.755 1.756 1.17 2.823 1.17 s 2.069 -0.415 2.823 -1.169 l 4.434 -4.434 l 4.15 4.15 l -4.434 4.434 c -1.557 1.557 -1.557 4.089 0 5.646 l 3.153 3.153 c 0.778 0.778 1.8 1.168 2.823 1.168 s 2.044 -0.389 2.823 -1.168 l 0.347 -0.347 l 9.695 9.695 c 0 0 0 0.001 0.001 0.001 s 0.001 0 0.001 0.001 l 7.437 7.436 c 0 0 0.001 0.001 0.001 0.001 s 0.001 0.001 0.001 0.001 l 14.929 14.929 c 1.638 1.638 3.788 2.456 5.94 2.456 c 0.905 0 1.807 -0.154 2.673 -0.443 l 4.103 1.475 c 0.839 0.301 1.711 0.446 2.576 0.446 c 1.343 0 2.668 -0.359 3.837 -1.028 l 12.137 12.011 C 86.983 89.808 87.491 90 88 90 c 0.516 0 1.03 -0.198 1.422 -0.593 C 90.198 88.622 90.192 87.355 89.407 86.578 z M 7.149 27.009 l -3.153 -3.143 L 23.861 4.002 l 3.148 3.137 l -5.831 5.834 c -0.005 0.005 -0.012 0.009 -0.017 0.014 l -8.174 8.174 c -0.013 0.013 -0.021 0.028 -0.034 0.042 L 7.149 27.009 z M 22.575 17.229 l 4.15 4.15 l -5.346 5.346 l -4.15 -4.15 L 22.575 17.229 z M 16.945 36.816 l 19.866 -19.865 l 3.148 3.137 l -1.756 1.757 c -0.002 0.002 -0.004 0.003 -0.005 0.004 s -0.003 0.004 -0.004 0.005 l -16.292 16.3 c -0.017 0.016 -0.037 0.027 -0.054 0.044 c -0.017 0.017 -0.028 0.037 -0.044 0.054 l -1.706 1.707 L 16.945 36.816 z M 58.155 71.676 l -6.077 -6.077 l 6.76 -6.761 c 0.781 -0.781 0.781 -2.047 0 -2.828 c -0.781 -0.781 -2.047 -0.781 -2.828 0 l -6.76 6.761 l -4.611 -4.611 l 10.237 -10.236 c 0.781 -0.781 0.781 -2.047 0 -2.828 c -0.781 -0.781 -2.047 -0.781 -2.828 0 L 41.811 55.332 l -4.611 -4.61 l 6.76 -6.761 c 0.781 -0.781 0.781 -2.047 0 -2.828 c -0.781 -0.781 -2.048 -0.781 -2.828 0 l -6.76 6.761 l -8.281 -8.281 l 13.521 -13.521 l 32.064 32.065 c 0.831 0.831 1.288 1.936 1.288 3.111 c 0 1.176 -0.457 2.28 -1.288 3.111 l -7.298 7.298 c -0.831 0.831 -1.936 1.288 -3.111 1.288 C 60.091 72.964 58.987 72.507 58.155 71.676 z M 69.395 74.228 l -1.407 -0.506 l 5.734 -5.734 l 0.505 1.405 c 0.478 1.331 0.141 2.836 -0.858 3.836 l -0.139 0.139 C 72.23 74.37 70.721 74.705 69.395 74.228 z" style="stroke: none; stroke-width: 1; stroke-dasharray: none; stroke-linecap: butt; stroke-linejoin: miter; stroke-miterlimit: 10; fill: rgb(0,0,0); fill-rule: nonzero; opacity: 1;" transform=" matrix(1 0 0 1 0 0) " stroke-linecap="round" />
</g>
</svg>