<svg xmlns="http://www.w3.org/2000/svg" version="1.0" width="512.000000pt" height="512.000000pt" viewBox="0 0 512.000000 512.000000" preserveAspectRatio="xMidYMid meet" transform="matrix(-1, 0, 0, 1, 0, 0)">
<metadata fill="#a22f97">
Created by potrace 1.16, written by Peter Selinger 2001-2019
</metadata>
<g transform="translate(0.000000,512.000000) scale(0.100000,-0.100000)" fill="#a22f97" stroke="none">
<path d="M679 4717 c-118 -34 -215 -120 -260 -234 l-24 -58 -5 -640 -5 -640 -29 -53 c-48 -87 -123 -136 -229 -151 -104 -15 -127 -35 -127 -111 0 -33 6 -48 29 -71 26 -25 37 -29 88 -29 194 1 379 130 455 318 l23 57 5 640 c5 604 6 642 24 678 22 45 78 85 129 94 77 12 92 0 434 -340 l322 -320 -88 -93 c-132 -140 -181 -251 -181 -414 0 -100 18 -176 61 -263 27 -54 98 -129 532 -564 l500 -502 489 -285 c293 -171 507 -290 532 -296 60 -13 111 -2 169 37 l51 34 80 -80 c87 -86 131 -111 196 -111 68 0 110 26 218 133 88 87 105 110 118 154 16 55 12 108 -12 153 -7 14 -49 61 -93 104 l-80 79 24 31 c54 73 69 146 45 213 -6 15 -138 246 -293 513 l-281 485 -486 486 c-267 267 -507 500 -534 517 -167 108 -375 120 -553 32 -62 -31 -106 -63 -174 -127 l-90 -86 -337 335 c-315 314 -341 337 -397 358 -73 27 -184 35 -246 17z m1629 -682 c94 -42 95 -44 18 -125 -63 -67 -66 -73 -66 -119 0 -68 33 -101 101 -101 46 0 52 3 119 67 l71 67 350 -350 349 -349 -177 -177 -178 -178 -130 130 c-139 138 -166 154 -224 130 -40 -16 -61 -51 -61 -101 0 -41 5 -47 132 -176 l132 -133 -177 -178 -177 -177 -350 350 -350 350 59 60 c66 67 81 92 81 130 0 60 -47 105 -108 105 -34 0 -62 -18 -134 -88 l-57 -55 -29 47 c-39 62 -56 132 -50 215 8 111 35 150 266 384 113 114 229 223 259 244 101 69 217 79 331 28z m1327 -1516 l232 -397 -237 -237 -237 -237 -294 173 c-162 94 -347 203 -413 241 l-119 70 409 409 c344 344 410 406 418 391 5 -9 114 -195 241 -413z m283 -792 l62 -63 -65 -64 -65 -64 -65 64 -65 64 62 63 c34 35 65 63 68 63 3 0 34 -28 68 -63z" fill="#a22f97"/>
<path d="M2004 3570 c-36 -14 -64 -59 -64 -102 0 -107 150 -137 196 -40 41 86 -44 178 -132 142z" fill="#a22f97"/>
<path d="M4556 1638 c-19 -16 -32 -46 -46 -102 -69 -272 -253 -460 -515 -526 -44 -11 -91 -28 -105 -39 -52 -38 -48 -132 7 -168 51 -33 214 5 370 86 215 112 386 334 444 576 24 101 22 133 -16 171 -33 33 -103 34 -139 2z" fill="#a22f97"/>
<path d="M4952 1575 c-23 -19 -32 -38 -41 -87 -78 -402 -368 -729 -756 -851 -44 -14 -102 -28 -129 -32 -32 -5 -59 -17 -80 -36 -61 -54 -32 -160 48 -174 63 -12 287 50 421 117 197 99 383 262 501 439 105 158 191 381 201 520 6 75 6 75 -26 102 -43 36 -98 37 -139 2z" fill="#a22f97"/>
</g>
</svg>