<svg width="71" height="60" viewBox="0 0 71 60" fill="none" xmlns="http://www.w3.org/2000/svg">
<g clip-path="url(#clip0_17_50)">
<path d="M61.7168 0.509766C63.3301 0.974609 64.6563 2.15039 65.2715 3.70898L65.5996 4.50195L65.668 13.252L65.7363 22.002L66.1328 22.7266C66.7891 23.916 67.8145 24.5859 69.2637 24.791C70.6855 24.9961 71 25.2695 71 26.3086C71 26.7598 70.918 26.9648 70.6035 27.2793C70.248 27.6211 70.0977 27.6758 69.4004 27.6758C66.748 27.6621 64.2188 25.8984 63.1797 23.3281L62.8652 22.5488L62.7969 13.7988C62.7285 5.54102 62.7148 5.02148 62.4688 4.5293C62.168 3.91406 61.4023 3.36719 60.7051 3.24414C59.6523 3.08008 59.4473 3.24414 54.7715 7.89258L50.3691 12.2676L51.5723 13.5391C53.377 15.4531 54.0469 16.9707 54.0469 19.1992C54.0469 20.5664 53.8008 21.6055 53.2129 22.7949C52.8438 23.5332 51.873 24.5586 45.9395 30.5059L39.1035 37.3691L32.418 41.2656C28.4121 43.6035 25.4863 45.2305 25.1445 45.3125C24.3242 45.4902 23.627 45.3398 22.834 44.8066L22.1367 44.3418L21.043 45.4355C19.8535 46.6113 19.252 46.9531 18.3633 46.9531C17.4336 46.9531 16.8594 46.5977 15.3828 45.1348C14.1797 43.9453 13.9473 43.6309 13.7695 43.0293C13.5508 42.2773 13.6055 41.5527 13.9336 40.9375C14.0293 40.7461 14.6035 40.1035 15.2051 39.5156L16.2988 38.4355L15.9707 38.0117C15.2324 37.0137 15.0273 36.0156 15.3555 35.0996C15.4375 34.8945 17.2422 31.7363 19.3613 28.0859L23.2031 21.4551L29.8477 14.8105C33.4981 11.1602 36.7793 7.97461 37.1484 7.74219C39.4316 6.26562 42.2754 6.10156 44.709 7.30469C45.5566 7.72852 46.1582 8.16602 47.0879 9.04102L48.3184 10.2168L52.9258 5.63672C57.2324 1.34375 57.5879 1.0293 58.3535 0.742188C59.3516 0.373047 60.8691 0.263672 61.7168 0.509766ZM39.4453 9.83398C38.1602 10.4082 38.1465 10.4355 39.1992 11.543C40.0605 12.459 40.1016 12.541 40.1016 13.1699C40.1016 14.0996 39.6504 14.5508 38.7207 14.5508C38.0918 14.5508 38.0098 14.5098 37.0938 13.6348L36.1231 12.7188L31.3379 17.5039L26.5664 22.2754L28.9863 24.6953L31.4199 27.1289L33.1973 25.3516C35.0977 23.4648 35.4668 23.2461 36.2598 23.5742C36.8066 23.793 37.0938 24.2715 37.0938 24.9551C37.0938 25.5156 37.0254 25.5977 35.2891 27.3613L33.4844 29.1797L35.9043 31.6133L38.3242 34.0332L43.1094 29.248L47.8945 24.4629L47.0879 23.6426C46.1855 22.7266 45.9805 22.3848 45.9805 21.8652C45.9805 21.0449 46.623 20.4297 47.457 20.4297C47.9219 20.4297 48.3047 20.6758 49.2891 21.6328L50.0684 22.3848L50.4648 21.7422C50.998 20.8945 51.2305 19.9375 51.1484 18.8027C51.0391 17.2852 50.6699 16.752 47.5117 13.5527C45.9668 11.9941 44.3809 10.5039 43.9707 10.2168C42.5898 9.27344 41.0039 9.13672 39.4453 9.83398ZM21.3027 30.5605L18.1309 35.9883L21.3711 39.2285L24.6113 42.4688L28.6309 40.1035C30.8457 38.8184 33.375 37.3281 34.2773 36.8086L35.9043 35.8516L30.3125 30.2598C25.6094 25.5566 24.707 24.709 24.5977 24.9141C24.5293 25.0371 23.0391 27.5801 21.3027 30.5605ZM17.4336 41.3887L16.5859 42.25L17.4746 43.125L18.3633 44L19.252 43.125L20.1406 42.25L19.293 41.3887C18.8281 40.9102 18.4043 40.5273 18.3633 40.5273C18.3223 40.5273 17.8984 40.9102 17.4336 41.3887Z" fill="white"/>
<path d="M43.6016 16.1914C44.0938 16.3828 44.4766 16.9981 44.4766 17.586C44.4766 19.0489 42.4258 19.459 41.7969 18.1328C41.2363 16.9571 42.3984 15.6992 43.6016 16.1914Z" fill="white"/>
<path d="M8.71092 42.6055C8.97069 42.8243 9.14842 43.2344 9.33983 44C10.2832 47.7188 12.7988 50.2891 16.3808 51.1914C16.9824 51.3418 17.625 51.5743 17.8164 51.7246C18.5273 52.2442 18.4726 53.5293 17.7207 54.0215C17.0234 54.4727 14.7949 53.9532 12.6621 52.8457C9.72264 51.3145 7.38475 48.2793 6.59178 44.9707C6.26366 43.5899 6.291 43.1524 6.81053 42.6328C7.26171 42.1817 8.21874 42.168 8.71092 42.6055Z" fill="white"/>
<path d="M3.29686 43.4668C3.61131 43.7266 3.73436 43.9863 3.85741 44.6563C4.92381 50.1524 8.88866 54.6231 14.1933 56.291C14.7949 56.4824 15.5879 56.6738 15.957 56.7285C16.3945 56.7969 16.7637 56.961 17.0508 57.2207C17.8848 57.959 17.4883 59.4082 16.3945 59.5996C15.5332 59.7637 12.4707 58.916 10.6387 58C7.9453 56.6465 5.40233 54.418 3.78905 51.9981C2.3535 49.8379 1.17772 46.7891 1.041 44.8887C0.958969 43.8633 0.958969 43.8633 1.39647 43.4942C1.98436 43.002 2.73631 42.9883 3.29686 43.4668Z" fill="white"/>
</g>
<defs>
<clipPath id="clip0_17_50">
<rect width="71" height="60" fill="white" transform="matrix(-1 0 0 1 71 0)"/>
</clipPath>
</defs>
</svg>
