<?xml version="1.0" standalone="no"?>
<!DOCTYPE svg PUBLIC "-//W3C//DTD SVG 20010904//EN"
 "http://www.w3.org/TR/2001/REC-SVG-20010904/DTD/svg10.dtd">
<svg version="1.0" xmlns="http://www.w3.org/2000/svg"
 width="225.000000pt" height="225.000000pt" viewBox="0 0 225.000000 225.000000"
 preserveAspectRatio="xMidYMid meet">
<metadata>
Created by potrace 1.16, written by Peter Selinger 2001-2019
</metadata>
<g transform="translate(0.000000,225.000000) scale(0.100000,-0.100000)"
fill="#000000" stroke="none">
<path d="M1336 1606 c-10 -18 -74 -79 -143 -136 -73 -59 -143 -127 -168 -161
-109 -148 -128 -328 -55 -501 43 -101 40 -152 -10 -159 -14 -2 -26 -12 -28
-22 -3 -13 4 -17 32 -17 51 0 79 39 73 103 -6 71 -1 71 213 12 59 -17 94 -13
123 12 19 18 23 73 7 104 -9 15 -7 21 5 25 21 9 19 34 -4 34 -34 0 -46 -27
-34 -72 21 -80 -8 -91 -136 -53 -60 17 -109 26 -143 24 l-52 -3 -18 43 c-32
76 -43 161 -29 242 23 140 84 226 266 374 90 73 97 77 110 59 35 -48 40 -111
19 -241 -9 -58 -1 -81 52 -153 25 -34 44 -63 42 -65 -2 -2 -20 -10 -42 -19
-36 -15 -38 -18 -32 -51 l7 -35 -56 0 c-48 0 -55 -2 -55 -20 0 -18 7 -20 63
-20 77 0 89 8 85 51 -3 30 1 37 32 54 19 11 36 29 38 39 2 10 -17 43 -43 77
-59 75 -67 102 -48 170 19 71 11 148 -23 216 -19 40 -23 58 -15 66 15 15 14
57 -2 57 -7 0 -21 -15 -31 -34z"/>
<path d="M1212 1557 c-28 -24 -94 -67 -145 -97 -126 -75 -237 -185 -263 -260
-26 -79 -23 -184 10 -285 25 -80 77 -175 95 -175 23 0 19 23 -13 82 -51 95
-70 162 -70 253 -1 144 60 226 265 353 131 81 206 142 195 160 -11 18 -16 15
-74 -31z"/>
<path d="M1046 1511 c-9 -10 -47 -26 -84 -36 -81 -20 -155 -59 -188 -98 -50
-59 -13 -65 52 -8 27 24 65 45 101 55 107 32 143 48 158 68 26 38 -8 54 -39
19z"/>
</g>
</svg>
