<?xml version="1.0" standalone="no"?>
<!DOCTYPE svg PUBLIC "-//W3C//DTD SVG 20010904//EN"
 "http://www.w3.org/TR/2001/REC-SVG-20010904/DTD/svg10.dtd">
<svg version="1.0" xmlns="http://www.w3.org/2000/svg"
 width="512.000000pt" height="512.000000pt" viewBox="0 0 512.000000 512.000000"
 preserveAspectRatio="xMidYMid meet">
<metadata>
Created by potrace 1.16, written by Peter Selinger 2001-2019
</metadata>
<g transform="translate(0.000000,512.000000) scale(0.100000,-0.100000)"
fill="#000000" stroke="none">
<path d="M2820 5103 c-8 -4 -190 -179 -405 -391 -214 -211 -428 -412 -474
-447 -161 -122 -378 -215 -581 -250 -53 -10 -193 -21 -320 -25 -173 -6 -244
-13 -307 -29 -285 -71 -526 -270 -648 -535 -57 -121 -76 -206 -82 -356 -4
-106 -2 -154 11 -220 70 -344 341 -636 683 -736 99 -28 346 -52 425 -40 153
23 201 199 78 284 -28 19 -46 22 -129 22 -268 1 -419 58 -581 220 -129 129
-180 249 -180 425 0 110 18 185 69 290 74 151 222 279 384 331 74 24 104 27
307 35 152 5 266 15 350 29 278 48 536 164 755 338 88 70 809 785 837 830 43
69 18 174 -50 215 -29 17 -109 22 -142 10z"/>
<path d="M4332 5090 c-60 -37 -69 -76 -76 -325 -8 -303 -37 -499 -118 -779
-29 -103 -38 -149 -33 -175 4 -22 139 -249 352 -590 305 -488 347 -560 351
-602 2 -26 1 -61 -3 -76 -4 -17 -71 -93 -179 -203 -95 -96 -178 -185 -184
-196 -6 -12 -48 -238 -92 -503 l-80 -482 -82 -162 -81 -162 -7 -121 c-6 -105
-10 -129 -37 -185 -38 -82 -110 -154 -193 -193 l-65 -31 -280 1 c-235 1 -303
4 -425 23 -678 103 -1222 363 -1709 816 -51 48 -108 93 -127 101 -137 57 -268
-92 -191 -218 28 -46 211 -214 344 -315 56 -43 102 -83 102 -88 1 -6 -33 -112
-74 -235 -41 -123 -75 -236 -75 -250 1 -36 34 -105 61 -124 32 -22 156 -22
187 0 32 22 52 67 116 262 32 94 60 172 62 172 2 0 68 -33 147 -74 287 -150
571 -251 879 -315 262 -54 368 -62 738 -59 l335 3 63 26 c139 59 241 138 318
244 84 119 134 266 134 400 0 62 4 74 79 223 l79 157 77 465 77 465 157 160
c203 208 240 279 241 455 0 86 -16 153 -52 225 -14 28 -160 264 -323 525 -164
261 -302 484 -307 495 -7 15 -1 51 21 130 71 258 100 477 107 790 5 230 5 241
-15 273 -45 70 -148 95 -219 52z"/>
<path d="M2495 3895 c-5 -2 -23 -6 -39 -10 -35 -7 -255 -218 -297 -284 -31
-48 -37 -98 -18 -148 5 -15 69 -87 142 -160 94 -96 143 -137 174 -149 123 -47
239 67 198 196 -6 20 -1 20 285 20 282 0 294 1 331 22 51 29 84 93 76 150 -6
45 -28 81 -71 112 -26 20 -42 21 -327 24 -292 3 -300 3 -294 22 22 68 -9 156
-63 184 -30 15 -82 26 -97 21z"/>
<path d="M890 3503 c-184 -22 -347 -166 -395 -348 -77 -297 145 -595 444 -595
82 0 124 23 151 83 25 53 25 93 1 137 -25 48 -72 77 -137 86 -94 11 -153 68
-162 153 -4 41 0 58 22 95 29 49 90 86 145 86 84 0 159 88 148 172 -13 99 -93
147 -217 131z"/>
<path d="M1765 3021 c-45 -11 -71 -31 -94 -72 -19 -34 -21 -53 -21 -238 0
-217 3 -233 54 -280 19 -18 41 -26 83 -29 68 -6 113 15 145 66 l21 34 207
-207 c221 -220 236 -231 317 -218 49 8 109 67 118 116 16 86 10 95 -218 325
-116 116 -205 212 -196 212 8 0 29 13 46 29 37 33 58 98 48 149 -8 46 -60 97
-110 111 -44 12 -352 13 -400 2z"/>
<path d="M2086 1624 c-171 -48 -205 -65 -230 -118 -24 -51 -20 -83 31 -274 52
-195 73 -232 143 -253 79 -24 168 23 191 101 l11 37 251 -143 c218 -126 256
-144 294 -144 50 0 87 16 123 54 19 21 25 40 28 89 6 97 -4 106 -283 268 -132
76 -244 140 -249 142 -4 1 5 17 22 35 62 66 46 185 -31 232 -49 30 -120 24
-301 -26z"/>
</g>
</svg>
